<svg width="44" height="33" viewBox="0 0 44 33" fill="none" xmlns="http://www.w3.org/2000/svg">
<path d="M4.5 32.5C3.4 32.5 2.45833 32.1083 1.675 31.325C0.891667 30.5417 0.5 29.6 0.5 28.5V4.5C0.5 3.4 0.891667 2.45833 1.675 1.675C2.45833 0.891667 3.4 0.5 4.5 0.5H16.5L20.5 4.5H36.5C37.6 4.5 38.5417 4.89167 39.325 5.675C40.1083 6.45833 40.5 7.4 40.5 8.5H18.85L14.85 4.5H4.5V28.5L9.3 12.5H43.5L38.35 29.65C38.0833 30.5167 37.5917 31.2083 36.875 31.725C36.1583 32.2417 35.3667 32.5 34.5 32.5H4.5ZM8.7 28.5H34.5L38.1 16.5H12.3L8.7 28.5Z" fill="#303030"/>
</svg>
