<svg width="49" height="49" viewBox="0 0 49 49" fill="none" xmlns="http://www.w3.org/2000/svg">
<path d="M13.8333 42.5C12.9166 42.5 12.1319 42.1736 11.4791 41.5209C10.8264 40.8681 10.5 40.0834 10.5 39.1667V16.1667C10.5 15.1583 10.859 14.2951 11.5771 13.5771C12.2951 12.859 13.1583 12.5 14.1667 12.5H18.5V6.8333C18.5 6.18517 18.7268 5.63425 19.1805 5.18055C19.6342 4.72685 20.1852 4.5 20.8333 4.5H28.1667C28.8148 4.5 29.3657 4.72685 29.8194 5.18055C30.2731 5.63425 30.5 6.18517 30.5 6.8333V12.5H35.1667C36.0834 12.5 36.8681 12.8264 37.5208 13.4792C38.1736 14.1319 38.5 14.9166 38.5 15.8333V39.1667C38.5 40.0834 38.1736 40.8681 37.5208 41.5209C36.8681 42.1736 36.0834 42.5 35.1667 42.5C35.1667 43.0667 34.975 43.5417 34.5917 43.925C34.2084 44.3083 33.7334 44.5 33.1667 44.5C32.6 44.5 32.125 44.3083 31.7417 43.925C31.3584 43.5417 31.1667 43.0667 31.1667 42.5H17.8333C17.8333 43.0667 17.6416 43.5417 17.2583 43.925C16.875 44.3083 16.4 44.5 15.8333 44.5C15.2666 44.5 14.7916 44.3083 14.4083 43.925C14.025 43.5417 13.8333 43.0667 13.8333 42.5ZM13.8333 39.1667H35.1667V15.8333H13.8333V39.1667ZM16.8333 36.5H19.1667V18.5H16.8333V36.5ZM23.3334 36.5H25.6667V18.5H23.3334V36.5ZM29.8333 36.5H32.1667V18.5H29.8333V36.5ZM20.8333 12.5H28.1667V6.8333H20.8333V12.5Z" fill="#303030"/>
</svg>
