<svg width="29" height="41" viewBox="0 0 29 41" fill="none" xmlns="http://www.w3.org/2000/svg">
<rect width="29" height="41" fill="#F5F5F5"/>
<g id="servicios">
<g id="Frame 13">
<g id="Frame 6">
<rect x="-109.5" y="-86.5" width="248" height="339" rx="7.5" stroke="black"/>
<g id="Frame 15">
<g id="Frame 5">
<g id="Frame 17">
<rect x="-16" y="-10" width="61" height="61" rx="30.5" stroke="#303030" stroke-width="3"/>
<g id="luggage">
<path id="Vector" d="M3.8333 38.5C2.91663 38.5 2.13192 38.1736 1.47915 37.5209C0.826383 36.8681 0.5 36.0834 0.5 35.1667V12.1667C0.5 11.1583 0.859034 10.2951 1.5771 9.5771C2.29513 8.85903 3.15832 8.5 4.16665 8.5H8.5V2.8333C8.5 2.18517 8.72685 1.63425 9.18055 1.18055C9.63425 0.726851 10.1852 0.5 10.8333 0.5H18.1667C18.8148 0.5 19.3657 0.726851 19.8194 1.18055C20.2731 1.63425 20.5 2.18517 20.5 2.8333V8.5H25.1667C26.0834 8.5 26.8681 8.82638 27.5208 9.47915C28.1736 10.1319 28.5 10.9166 28.5 11.8333V35.1667C28.5 36.0834 28.1736 36.8681 27.5208 37.5209C26.8681 38.1736 26.0834 38.5 25.1667 38.5C25.1667 39.0667 24.975 39.5417 24.5917 39.925C24.2084 40.3083 23.7334 40.5 23.1667 40.5C22.6 40.5 22.125 40.3083 21.7417 39.925C21.3584 39.5417 21.1667 39.0667 21.1667 38.5H7.8333C7.8333 39.0667 7.64163 39.5417 7.2583 39.925C6.87497 40.3083 6.39997 40.5 5.8333 40.5C5.26663 40.5 4.79163 40.3083 4.4083 39.925C4.02497 39.5417 3.8333 39.0667 3.8333 38.5ZM3.8333 35.1667H25.1667V11.8333H3.8333V35.1667ZM6.83335 32.5H9.16665V14.5H6.83335V32.5ZM13.3334 32.5H15.6667V14.5H13.3334V32.5ZM19.8333 32.5H22.1667V14.5H19.8333V32.5ZM10.8333 8.5H18.1667V2.8333H10.8333V8.5Z" fill="#303030"/>
</g>
</g>
</g>
</g>
</g>
</g>
</g>
</svg>
