<svg width="49" height="48" viewBox="0 0 49 48" fill="none" xmlns="http://www.w3.org/2000/svg">
<g id="inventory">
<path id="Vector" d="M31.5 40.05L23.5 32.05L25.65 29.9L31.5 35.75L43.45 23.8L45.6 25.95L31.5 40.05ZM42.5 19.35H39.5V9H36.5V13.5H12.5V9H9.5V39H22.05V42H9.5C8.63333 42 7.91667 41.7167 7.35 41.15C6.78333 40.5833 6.5 39.8667 6.5 39V9C6.5 8.13333 6.78333 7.41667 7.35 6.85C7.91667 6.28333 8.63333 6 9.5 6H19.6C19.8333 4.83333 20.4083 3.875 21.325 3.125C22.2417 2.375 23.3 2 24.5 2C25.7 2 26.7583 2.375 27.675 3.125C28.5917 3.875 29.1667 4.83333 29.4 6H39.5C40.3667 6 41.0833 6.28333 41.65 6.85C42.2167 7.41667 42.5 8.13333 42.5 9V19.35ZM24.5 9C25.0667 9 25.5417 8.80833 25.925 8.425C26.3083 8.04167 26.5 7.56667 26.5 7C26.5 6.43333 26.3083 5.95833 25.925 5.575C25.5417 5.19167 25.0667 5 24.5 5C23.9333 5 23.4583 5.19167 23.075 5.575C22.6917 5.95833 22.5 6.43333 22.5 7C22.5 7.56667 22.6917 8.04167 23.075 8.425C23.4583 8.80833 23.9333 9 24.5 9Z" fill="#303030"/>
</g>
</svg>
