<svg width="49" height="49" viewBox="0 0 49 49" fill="none" xmlns="http://www.w3.org/2000/svg">
<g id="chair 1">
<path id="Vector" d="M10.2666 42.5C9.81112 42.5 9.41945 42.3361 9.09165 42.0084C8.76388 41.6805 8.6 41.2889 8.6 40.8334V38.7667H8.16665C6.59258 38.7667 5.25462 38.2157 4.15275 37.1139C3.05092 36.0121 2.5 34.6741 2.5 33.1V21.6333C2.5 19.9444 3.03888 18.6111 4.11665 17.6333C5.19445 16.6555 6.47778 16.1667 7.96665 16.1667V11.9667C7.96665 10.3889 8.48332 9.08333 9.51665 8.05C10.55 7.01667 11.8555 6.5 13.4333 6.5H35.6C37.1778 6.5 38.4778 7.01667 39.5 8.05C40.5222 9.08333 41.0334 10.3889 41.0334 11.9667V16.1667C42.5222 16.1667 43.8055 16.6555 44.8834 17.6333C45.9611 18.6111 46.5 19.9444 46.5 21.6333V33.1C46.5 34.6741 45.9491 36.0121 44.8472 37.1139C43.7454 38.2157 42.4074 38.7667 40.8334 38.7667H40.4V40.8334C40.4 41.2889 40.2361 41.6805 39.9084 42.0084C39.5806 42.3361 39.1889 42.5 38.7333 42.5C38.2778 42.5 37.8861 42.3361 37.5583 42.0084C37.2306 41.6805 37.0667 41.2889 37.0667 40.8334V38.7667H11.9333V40.8334C11.9333 41.2889 11.7694 41.6805 11.4416 42.0084C11.1139 42.3361 10.7222 42.5 10.2666 42.5ZM8.16665 35.4333H40.8334C41.4667 35.4333 42.0139 35.2028 42.475 34.7417C42.9361 34.2806 43.1667 33.7333 43.1667 33.1V21.6333C43.1667 21 42.9695 20.4861 42.575 20.0917C42.1806 19.6972 41.6667 19.5 41.0334 19.5C40.4 19.5 39.8861 19.6972 39.4917 20.0917C39.0972 20.4861 38.9 21 38.9 21.6333V30.1667H10.1V21.6333C10.1 21 9.90277 20.4861 9.5083 20.0917C9.11387 19.6972 8.59998 19.5 7.96665 19.5C7.33332 19.5 6.81943 19.6972 6.425 20.0917C6.03053 20.4861 5.8333 21 5.8333 21.6333V33.1C5.8333 33.7333 6.06387 34.2806 6.525 34.7417C6.9861 35.2028 7.53332 35.4333 8.16665 35.4333ZM13.4333 26.8333H35.5667V21.6333C35.5667 20.6444 35.7834 19.8 36.2167 19.1C36.65 18.4 37.1445 17.8222 37.7001 17.3667V11.9667C37.7001 11.3333 37.5028 10.8194 37.1083 10.425C36.7139 10.0305 36.2029 9.8333 35.5753 9.8333H13.4247C12.7971 9.8333 12.2861 10.0305 11.8917 10.425C11.4972 10.8194 11.2999 11.3333 11.2999 11.9667V17.3667C11.8555 17.8222 12.35 18.4 12.7833 19.1C13.2166 19.8 13.4333 20.6444 13.4333 21.6333V26.8333Z" fill="#303030"/>
</g>
</svg>
